<?xml version="1.0" standalone="no"?>
<!DOCTYPE svg PUBLIC "-//W3C//DTD SVG 20010904//EN"
 "http://www.w3.org/TR/2001/REC-SVG-20010904/DTD/svg10.dtd">
<svg version="1.0" xmlns="http://www.w3.org/2000/svg"
 width="735.000000pt" height="735.000000pt" viewBox="0 0 735.000000 735.000000"
 preserveAspectRatio="xMidYMid meet">
<metadata>
Created by potrace 1.14, written by Peter Selinger 2001-2017
</metadata>
<g transform="translate(0.000000,735.000000) scale(0.100000,-0.100000)"
fill="#000000" stroke="none">
<path d="M3628 7345 c-2 -2 -22 -5 -46 -9 -117 -16 -232 -68 -304 -139 -80
-78 -107 -164 -105 -325 l2 -107 -34 44 c-92 121 -243 215 -382 237 -70 11
-185 6 -251 -12 -168 -43 -259 -130 -294 -280 -22 -97 -5 -258 36 -334 11 -20
10 -21 -12 -15 -12 4 -36 14 -52 23 -65 32 -212 7 -291 -50 -80 -58 -151 -176
-179 -298 -14 -60 -16 -228 -3 -300 2 -14 7 -50 11 -80 4 -30 9 -66 11 -80 3
-14 7 -50 9 -80 13 -145 18 -208 21 -240 2 -19 6 -73 10 -120 3 -47 8 -96 10
-110 2 -14 6 -56 10 -95 3 -38 8 -86 10 -105 5 -40 17 -194 20 -260 3 -50 7
-314 6 -372 -1 -36 -1 -36 -29 -23 -15 8 -62 29 -104 49 -75 34 -78 34 -88 15
-11 -20 -6 -23 175 -103 44 -20 50 -26 50 -53 1 -28 -3 -31 -35 -36 -105 -14
-220 -115 -275 -242 -82 -191 -78 -427 10 -610 85 -176 236 -258 391 -212 l51
15 23 -82 c67 -236 203 -518 338 -705 181 -249 440 -458 685 -551 28 -11 61
-25 72 -30 11 -6 61 -20 110 -33 l90 -24 1 -34 2 -34 -107 21 c-124 25 -161
31 -262 40 -41 3 -77 8 -81 11 -12 6 -10 -1 12 -57 11 -27 19 -50 17 -51 -1 0
-81 -2 -177 -4 -96 -2 -188 -6 -205 -9 -16 -3 -46 -9 -65 -13 -19 -3 -41 -7
-47 -9 -7 -1 -43 -12 -80 -24 -395 -127 -700 -453 -801 -855 -30 -117 -35
-168 -36 -392 l-2 -203 2189 0 2189 0 -5 238 c-2 130 -7 248 -11 262 -3 14 -8
39 -11 55 -23 116 -94 289 -161 392 -157 239 -395 423 -651 503 -121 38 -224
53 -383 56 -85 1 -158 3 -162 3 -4 1 2 22 12 47 11 25 20 48 20 50 0 3 -35 2
-77 -2 -43 -3 -94 -7 -113 -9 -76 -6 -257 -47 -292 -66 -21 -11 -38 -17 -39
-12 -1 4 -2 25 -2 47 l-2 38 120 34 c218 60 401 151 565 283 49 39 187 175
236 231 87 102 274 397 274 434 0 6 4 16 10 22 16 16 95 214 129 324 18 58 35
111 37 119 3 11 8 10 27 -2 45 -29 118 -44 181 -35 131 17 243 130 300 300 22
65 41 177 39 233 -8 297 -150 519 -345 541 -37 4 -58 11 -58 19 0 13 6 16 140
76 41 18 76 34 78 35 6 3 -11 34 -20 34 -6 0 -51 -18 -100 -40 l-90 -40 7 111
c3 61 8 121 10 132 2 12 6 49 9 82 6 69 15 139 22 175 2 14 7 41 10 60 2 19 9
58 14 85 5 28 12 66 15 85 3 19 8 42 10 50 2 8 7 35 10 60 3 25 8 52 10 60 2
8 6 33 9 55 4 22 8 51 11 65 2 14 6 41 9 60 13 87 20 128 61 333 59 300 56
378 -21 541 -86 182 -295 283 -466 225 -29 -10 -54 -17 -55 -16 0 1 6 18 16
37 45 92 64 227 46 325 -36 193 -227 318 -485 317 -96 0 -127 -4 -190 -24
-116 -37 -235 -118 -305 -209 l-20 -25 0 130 c0 162 -15 212 -87 291 -88 96
-245 158 -426 169 -39 2 -72 2 -74 1z"/>
</g>
</svg>
